HIERARCHY
ROOT hips
{
	OFFSET -0.0367 2.9993 -0.2171
	CHANNELS 6 Xposition Yposition Zposition Xrotation Yrotation Zrotation
	JOINT LowerBack
	{
		OFFSET 0.0092 1.7759 0.0927
		CHANNELS 3 Xrotation Yrotation Zrotation
		JOINT spine
		{
			OFFSET 0.0092 1.7759 0.0927
			CHANNELS 3 Xrotation Yrotation Zrotation
			JOINT chest
			{
				OFFSET 0.0046 1.0002 0.0464
				CHANNELS 3 Xrotation Yrotation Zrotation
				JOINT neck
				{
					OFFSET 0.0046 1.0002 0.0464
					CHANNELS 3 Xrotation Yrotation Zrotation
					JOINT head
					{
						OFFSET 0.0092 1.5515 0.0927
						CHANNELS 6 Xposition Yposition Zposition Xrotation Yrotation Zrotation
						End Site
						{
							OFFSET 0.0000 1.5340 0.0000
						}
					}
				}
				JOINT shoulder.L
				{
					OFFSET 0.1994 0.7897 0.5752
					CHANNELS 6 Xposition Yposition Zposition Xrotation Yrotation Zrotation
					JOINT upper_arm.L
					{
						OFFSET 1.7702 -0.2046 -0.9506
						CHANNELS 6 Xposition Yposition Zposition Xrotation Yrotation Zrotation
						JOINT forearm.L
						{
							OFFSET 2.4710 -1.3550 -0.6180
							CHANNELS 3 Xrotation Yrotation Zrotation
							JOINT hand.L
							{
								OFFSET 2.1700 -1.4300 0.3930
								CHANNELS 3 Xrotation Yrotation Zrotation
								JOINT palm.01.L
								{
									OFFSET 0.2177 -0.3829 0.1295
									CHANNELS 6 Xposition Yposition Zposition Xrotation Yrotation Zrotation
									JOINT f_index.01.L
									{
										OFFSET 0.5322 -0.4414 0.0824
										CHANNELS 3 Xrotation Yrotation Zrotation
										JOINT f_index.02.L
										{
											OFFSET 0.3611 -0.2472 -0.1066
											CHANNELS 3 Xrotation Yrotation Zrotation
											JOINT f_index.03.L
											{
												OFFSET 0.2134 -0.1495 -0.1085
												CHANNELS 3 Xrotation Yrotation Zrotation
												End Site
												{
													OFFSET 0.1560 -0.0986 -0.1342
												}
											}
										}
									}
									JOINT thumb.01.L
									{
										OFFSET -0.0909 -0.0235 -0.2422
										CHANNELS 6 Xposition Yposition Zposition Xrotation Yrotation Zrotation
										JOINT thumb.02.L
										{
											OFFSET 0.1971 -0.3508 -0.1112
											CHANNELS 3 Xrotation Yrotation Zrotation
											JOINT thumb.03.L
											{
												OFFSET 0.2488 -0.2175 -0.0518
												CHANNELS 3 Xrotation Yrotation Zrotation
												End Site
												{
													OFFSET 0.1613 -0.1303 -0.0157
												}
											}
										}
									}
								}
								JOINT palm.02.L
								{
									OFFSET 0.3282 -0.2510 0.1228
									CHANNELS 6 Xposition Yposition Zposition Xrotation Yrotation Zrotation
									JOINT f_middle.01.L
									{
										OFFSET 0.5572 -0.3847 0.0804
										CHANNELS 3 Xrotation Yrotation Zrotation
										JOINT f_middle.02.L
										{
											OFFSET 0.3817 -0.2747 -0.1558
											CHANNELS 3 Xrotation Yrotation Zrotation
											JOINT f_middle.03.L
											{
												OFFSET 0.2171 -0.1659 -0.1704
												CHANNELS 3 Xrotation Yrotation Zrotation
												End Site
												{
													OFFSET 0.1411 -0.1058 -0.1429
												}
											}
										}
									}
								}
								JOINT palm.03.L
								{
									OFFSET 0.3923 -0.1140 0.0839
									CHANNELS 6 Xposition Yposition Zposition Xrotation Yrotation Zrotation
									JOINT f_ring.01.L
									{
										OFFSET 0.6180 -0.3147 0.0791
										CHANNELS 3 Xrotation Yrotation Zrotation
										JOINT f_ring.02.L
										{
											OFFSET 0.3309 -0.2340 -0.1913
											CHANNELS 3 Xrotation Yrotation Zrotation
											JOINT f_ring.03.L
											{
												OFFSET 0.2139 -0.1536 -0.1782
												CHANNELS 3 Xrotation Yrotation Zrotation
												End Site
												{
													OFFSET 0.0867 -0.0730 -0.1469
												}
											}
										}
									}
								}
								JOINT palm.04.L
								{
									OFFSET 0.4342 0.0245 0.0289
									CHANNELS 6 Xposition Yposition Zposition Xrotation Yrotation Zrotation
									JOINT f_pinky.01.L
									{
										OFFSET 0.6999 -0.2616 0.0363
										CHANNELS 3 Xrotation Yrotation Zrotation
										JOINT f_pinky.02.L
										{
											OFFSET 0.1852 -0.1281 -0.1643
											CHANNELS 3 Xrotation Yrotation Zrotation
											JOINT f_pinky.03.L
											{
												OFFSET 0.1382 -0.0980 -0.1495
												CHANNELS 3 Xrotation Yrotation Zrotation
												End Site
												{
													OFFSET 0.0724 -0.0610 -0.1166
												}
											}
										}
									}
								}
							}
						}
					}
				}
				JOINT shoulder.R
				{
					OFFSET -0.1666 0.7896 0.5770
					CHANNELS 6 Xposition Yposition Zposition Xrotation Yrotation Zrotation
					JOINT upper_arm.R
					{
						OFFSET -1.7697 -0.2054 -0.9514
						CHANNELS 6 Xposition Yposition Zposition Xrotation Yrotation Zrotation
						JOINT forearm.R
						{
							OFFSET -2.4710 -1.3550 -0.6180
							CHANNELS 3 Xrotation Yrotation Zrotation
							JOINT hand.R
							{
								OFFSET -2.1700 -1.4300 0.3930
								CHANNELS 3 Xrotation Yrotation Zrotation
								JOINT palm.01.R
								{
									OFFSET -0.2177 -0.3828 0.1299
									CHANNELS 6 Xposition Yposition Zposition Xrotation Yrotation Zrotation
									JOINT f_index.01.R
									{
										OFFSET -0.5321 -0.4414 0.0825
										CHANNELS 3 Xrotation Yrotation Zrotation
										JOINT f_index.02.R
										{
											OFFSET -0.3605 -0.2483 -0.1063
											CHANNELS 3 Xrotation Yrotation Zrotation
											JOINT f_index.03.R
											{
												OFFSET -0.2137 -0.1488 -0.1087
												CHANNELS 3 Xrotation Yrotation Zrotation
												End Site
												{
													OFFSET -0.1558 -0.0988 -0.1342
												}
											}
										}
									}
									JOINT thumb.01.R
									{
										OFFSET 0.0911 -0.0238 -0.2421
										CHANNELS 6 Xposition Yposition Zposition Xrotation Yrotation Zrotation
										JOINT thumb.02.R
										{
											OFFSET -0.1969 -0.3510 -0.1109
											CHANNELS 3 Xrotation Yrotation Zrotation
											JOINT thumb.03.R
											{
												OFFSET -0.2487 -0.2176 -0.0517
												CHANNELS 3 Xrotation Yrotation Zrotation
												End Site
												{
													OFFSET -0.1612 -0.1304 -0.0157
												}
											}
										}
									}
								}
								JOINT palm.02.R
								{
									OFFSET -0.3283 -0.2510 0.1229
									CHANNELS 6 Xposition Yposition Zposition Xrotation Yrotation Zrotation
									JOINT f_middle.01.R
									{
										OFFSET -0.5572 -0.3847 0.0804
										CHANNELS 3 Xrotation Yrotation Zrotation
										JOINT f_middle.02.R
										{
											OFFSET -0.3810 -0.2759 -0.1556
											CHANNELS 3 Xrotation Yrotation Zrotation
											JOINT f_middle.03.R
											{
												OFFSET -0.2173 -0.1653 -0.1705
												CHANNELS 3 Xrotation Yrotation Zrotation
												End Site
												{
													OFFSET -0.1410 -0.1061 -0.1429
												}
											}
										}
									}
								}
								JOINT palm.03.R
								{
									OFFSET -0.3919 -0.1149 0.0839
									CHANNELS 6 Xposition Yposition Zposition Xrotation Yrotation Zrotation
									JOINT f_ring.01.R
									{
										OFFSET -0.6184 -0.3139 0.0788
										CHANNELS 3 Xrotation Yrotation Zrotation
										JOINT f_ring.02.R
										{
											OFFSET -0.3307 -0.2344 -0.1913
											CHANNELS 3 Xrotation Yrotation Zrotation
											JOINT f_ring.03.R
											{
												OFFSET -0.2137 -0.1539 -0.1782
												CHANNELS 3 Xrotation Yrotation Zrotation
												End Site
												{
													OFFSET -0.0865 -0.0732 -0.1468
												}
											}
										}
									}
								}
								JOINT palm.04.R
								{
									OFFSET -0.4342 0.0244 0.0284
									CHANNELS 6 Xposition Yposition Zposition Xrotation Yrotation Zrotation
									JOINT f_pinky.01.R
									{
										OFFSET -0.6998 -0.2617 0.0360
										CHANNELS 3 Xrotation Yrotation Zrotation
										JOINT f_pinky.02.R
										{
											OFFSET -0.1850 -0.1284 -0.1643
											CHANNELS 3 Xrotation Yrotation Zrotation
											JOINT f_pinky.03.R
											{
												OFFSET -0.1381 -0.0982 -0.1495
												CHANNELS 3 Xrotation Yrotation Zrotation
												End Site
												{
													OFFSET -0.0723 -0.0612 -0.1166
												}
											}
										}
									}
								}
							}
						}
					}
				}
			}
		}
	}
	JOINT pelvis.L
	{
		OFFSET 0.0000 0.0000 0.0000
		CHANNELS 6 Xposition Yposition Zposition Xrotation Yrotation Zrotation
		JOINT thigh.L
		{
			OFFSET 1.0168 0.0105 -0.0000
			CHANNELS 3 Xrotation Yrotation Zrotation
			JOINT shin.L
			{
				OFFSET 0.0000 -5.3480 0.4100
				CHANNELS 3 Xrotation Yrotation Zrotation
				JOINT foot.L
				{
					OFFSET 0.0000 -4.5200 -0.4480
					CHANNELS 3 Xrotation Yrotation Zrotation
					JOINT toe.L
					{
						OFFSET -0.0000 -0.6850 1.0960
						CHANNELS 3 Xrotation Yrotation Zrotation
						End Site
						{
							OFFSET -0.0000 0.0000 0.6720
						}
					}
				}
				JOINT heel.L
				{
					OFFSET 0.0000 -4.5200 -0.4480
					CHANNELS 3 Xrotation Yrotation Zrotation
					JOINT heel.02.L
					{
						OFFSET -0.3800 -0.8520 0.1620
						CHANNELS 6 Xposition Yposition Zposition Xrotation Yrotation Zrotation
						End Site
						{
							OFFSET 0.8000 -0.0000 0.0000
						}
					}
				}
			}
		}
	}
	JOINT pelvis.R
	{
		OFFSET 0.0000 0.0000 0.0000
		CHANNELS 6 Xposition Yposition Zposition Xrotation Yrotation Zrotation
		JOINT thigh.R
		{
			OFFSET -0.9433 0.0105 0.0000
			CHANNELS 3 Xrotation Yrotation Zrotation
			JOINT shin.R
			{
				OFFSET 0.0000 -5.3480 0.4100
				CHANNELS 3 Xrotation Yrotation Zrotation
				JOINT foot.R
				{
					OFFSET 0.0000 -4.5200 -0.4480
					CHANNELS 3 Xrotation Yrotation Zrotation
					JOINT toe.R
					{
						OFFSET -0.0000 -0.6850 1.0960
						CHANNELS 3 Xrotation Yrotation Zrotation
						End Site
						{
							OFFSET -0.0000 0.0000 0.6720
						}
					}
				}
				JOINT heel.R
				{
					OFFSET 0.0000 -4.5200 -0.4480
					CHANNELS 3 Xrotation Yrotation Zrotation
					JOINT heel.02.R
					{
						OFFSET 0.3800 -0.8520 0.1620
						CHANNELS 6 Xposition Yposition Zposition Xrotation Yrotation Zrotation
						End Site
						{
							OFFSET -0.8000 0.0000 -0.0000
						}
					}
				}
			}
		}
	}
}
MOTION
Frames: 4
Frame Time: 0.041667
-0.0037 0.2999 -0.0217 0.0000 -0.0000 0.0000 -0.0000 0.0000 0.0000 -0.0000 0.0000 0.0000 -0.0000 0.0000 0.0000 -0.0000 -0.0000 -0.0000 0.0009 0.1551 0.0093 -0.0000 -0.0000 -0.0000 0.0199 0.0790 0.0575 -0.0000 0.0000 -0.0000 0.1770 -0.0205 -0.0951 -0.0000 -0.0000 0.0000 -0.0000 -0.0000 -0.0000 -0.0000 -0.0000 0.0000 0.0218 -0.0383 0.0130 0.0000 0.0000 0.0000 -0.0000 -0.0000 -0.0000 -0.0000 -0.0000 0.0000 0.0000 0.0000 -0.0000 -0.0091 -0.0023 -0.0242 0.0000 0.0000 -0.0000 0.0000 0.0000 0.0000 -0.0000 0.0000 0.0000 0.0328 -0.0251 0.0123 -0.0000 0.0000 0.0000 -0.0000 0.0000 0.0000 -0.0000 -0.0000 0.0000 -0.0000 -0.0000 0.0000 0.0392 -0.0114 0.0084 -0.0000 0.0000 0.0000 0.0000 0.0000 -0.0000 -0.0000 0.0000 -0.0000 0.0000 0.0000 0.0000 0.0434 0.0024 0.0029 0.0000 0.0000 -0.0000 -0.0000 -0.0000 -0.0000 -0.0000 0.0000 0.0000 -0.0000 0.0000 0.0000 -0.0167 0.0790 0.0577 0.0000 -0.0000 0.0000 -0.1770 -0.0205 -0.0951 -0.0000 -0.0000 -0.0000 -0.0000 0.0000 -0.0000 -0.0000 0.0000 0.0000 -0.0218 -0.0383 0.0130 -0.0000 -0.0000 -0.0000 0.0000 0.0000 0.0000 0.0000 0.0000 0.0000 0.0000 0.0000 0.0000 0.0091 -0.0024 -0.0242 0.0000 -0.0000 0.0000 -0.0000 0.0000 0.0000 0.0000 0.0000 -0.0000 -0.0328 -0.0251 0.0123 -0.0000 0.0000 -0.0000 0.0000 0.0000 0.0000 0.0000 0.0000 -0.0000 -0.0000 0.0000 -0.0000 -0.0392 -0.0115 0.0084 0.0000 -0.0000 0.0000 -0.0000 0.0000 -0.0000 0.0000 -0.0000 0.0000 -0.0000 0.0000 -0.0000 -0.0434 0.0024 0.0028 -0.0000 -0.0000 -0.0000 -0.0000 0.0000 -0.0000 -0.0000 -0.0000 -0.0000 -0.0000 -0.0000 -0.0000 -0.0000 0.0000 -0.0000 -0.0000 -0.0000 0.0000 0.0000 -0.0002 0.0000 -0.0000 0.0002 -0.0000 0.0000 -0.0000 -0.0000 0.0000 -0.0000 -0.0000 0.0000 0.0000 -0.0000 -0.0380 -0.0852 0.0162 0.0000 0.0000 0.0000 0.0000 -0.0000 -0.0000 -0.0000 0.0000 -0.0000 0.0000 -0.0000 0.0000 -0.0000 0.0000 -0.0000 -0.0000 -0.0000 -0.0000 0.0000 -0.0000 -0.0000 0.0000 -0.0000 -0.0000 0.0380 -0.0852 0.0162 0.0000 -0.0000 0.0000 
0.0049 0.2688 -0.0214 -14.2579 84.2848 18.9657 -0.0000 0.0000 0.0000 -0.0000 -0.0000 -0.0000 -0.0000 -0.0000 0.0000 0.0000 -0.0000 -0.0000 0.0009 0.1551 0.0093 9.1330 -0.0109 2.9351 0.0199 0.0790 0.0575 4.2521 3.7102 27.7340 0.1770 -0.0205 -0.0951 -7.4049 11.7875 -67.4426 1.6062 -0.0257 -5.6460 -0.0000 -0.0000 -0.0000 0.0218 -0.0383 0.0130 -0.0000 0.0000 -0.0000 -0.0000 0.0000 -0.0000 -0.0000 0.0000 0.0000 -0.0000 -0.0000 0.0000 -0.0091 -0.0023 -0.0242 0.0000 0.0000 -0.0000 -0.0000 -0.0000 0.0000 -0.0000 -0.0000 0.0000 0.0328 -0.0251 0.0123 -0.0000 -0.0000 0.0000 -0.0000 0.0000 -0.0000 -0.0000 -0.0000 -0.0000 -0.0000 -0.0000 -0.0000 0.0392 -0.0114 0.0084 -0.0000 0.0000 0.0000 0.0000 0.0000 -0.0000 -0.0000 0.0000 -0.0000 -0.0000 -0.0000 -0.0000 0.0434 0.0024 0.0029 -0.0000 0.0000 -0.0000 -0.0000 -0.0000 0.0000 0.0000 0.0000 -0.0000 -0.0000 0.0000 -0.0000 -0.0167 0.0790 0.0577 3.9335 -1.7458 -27.2292 -0.1770 -0.0205 -0.0951 -4.3806 -11.6035 67.4959 4.5838 -3.4302 6.5756 -0.0000 0.0000 0.0000 -0.0218 -0.0383 0.0130 -0.0000 -0.0000 0.0000 -0.0000 0.0000 -0.0000 0.0000 0.0000 -0.0000 -0.0000 0.0000 0.0000 0.0091 -0.0024 -0.0242 -0.0000 -0.0000 -0.0000 -0.0000 -0.0000 0.0000 -0.0000 0.0000 -0.0000 -0.0328 -0.0251 0.0123 0.0000 0.0000 -0.0000 0.0000 0.0000 -0.0000 -0.0000 -0.0000 0.0000 -0.0000 0.0000 -0.0000 -0.0392 -0.0115 0.0084 0.0000 -0.0000 0.0000 -0.0000 0.0000 -0.0000 0.0000 -0.0000 -0.0000 0.0000 0.0000 -0.0000 -0.0434 0.0024 0.0028 -0.0000 -0.0000 0.0000 -0.0000 0.0000 -0.0000 -0.0000 -0.0000 -0.0000 0.0000 0.0000 -0.0000 -0.0000 -0.0000 -0.0000 -1.4223 0.0289 -1.4030 13.1736 -0.0278 -0.8687 -1.1359 -0.3299 3.3329 0.0000 0.0000 -0.0000 0.0000 0.0000 -0.0000 0.0000 -0.0000 0.0000 -0.0380 -0.0852 0.0162 -0.0000 0.0000 -0.0000 -0.0000 -0.0000 -0.0000 -1.3909 0.0285 -0.1688 11.5019 0.3597 5.2013 -1.2103 0.2129 -2.1482 -0.0000 -0.0000 -0.0000 0.0000 -0.0000 0.0000 0.0000 -0.0000 -0.0000 0.0380 -0.0852 0.0162 -0.0000 -0.0000 -0.0000 
0.0048 0.2713 -0.0214 -16.2319 83.9346 21.3118 -0.0000 0.0000 -0.0000 -0.0000 0.0000 -0.0000 -0.0000 0.0000 -0.0000 -0.0000 0.0000 0.0000 0.0009 0.1551 0.0093 12.2621 -0.0141 2.4407 0.0199 0.0790 0.0575 4.8504 4.8205 28.4849 0.1770 -0.0205 -0.0951 -6.3538 11.4677 -66.9640 0.2913 -1.6766 -6.1590 -0.0000 -0.0000 0.0000 0.0218 -0.0383 0.0130 -0.0000 0.0000 0.0000 -0.0000 -0.0000 0.0000 0.0000 0.0000 0.0000 -0.0000 0.0000 -0.0000 -0.0091 -0.0023 -0.0242 0.0000 -0.0000 -0.0000 -0.0000 -0.0000 0.0000 0.0000 0.0000 -0.0000 0.0328 -0.0251 0.0123 0.0000 -0.0000 0.0000 -0.0000 0.0000 -0.0000 -0.0000 -0.0000 0.0000 -0.0000 -0.0000 0.0000 0.0392 -0.0114 0.0084 -0.0000 0.0000 0.0000 0.0000 0.0000 0.0000 0.0000 0.0000 -0.0000 0.0000 -0.0000 0.0000 0.0434 0.0024 0.0029 -0.0000 0.0000 -0.0000 -0.0000 -0.0000 0.0000 -0.0000 0.0000 0.0000 0.0000 0.0000 0.0000 -0.0167 0.0790 0.0577 4.2433 -2.1396 -27.3962 -0.1770 -0.0205 -0.0951 -3.8561 -11.4910 66.9069 4.0035 -2.7753 6.4559 0.0000 0.0000 0.0000 -0.0218 -0.0383 0.0130 0.0000 -0.0000 -0.0000 -0.0000 0.0000 -0.0000 -0.0000 -0.0000 0.0000 0.0000 0.0000 0.0000 0.0091 -0.0024 -0.0242 0.0000 -0.0000 -0.0000 0.0000 -0.0000 -0.0000 0.0000 -0.0000 -0.0000 -0.0328 -0.0251 0.0123 0.0000 0.0000 -0.0000 0.0000 0.0000 0.0000 0.0000 0.0000 0.0000 0.0000 -0.0000 -0.0000 -0.0392 -0.0115 0.0084 0.0000 -0.0000 0.0000 -0.0000 0.0000 0.0000 0.0000 -0.0000 0.0000 -0.0000 -0.0000 -0.0000 -0.0434 0.0024 0.0028 0.0000 -0.0000 -0.0000 -0.0000 0.0000 0.0000 -0.0000 -0.0000 -0.0000 -0.0000 -0.0000 -0.0000 -0.0000 0.0000 -0.0000 -1.3860 0.0732 -1.9874 13.7121 -0.0172 -0.7585 -0.7569 -0.3324 3.3580 0.0000 -0.0000 -0.0000 0.0000 -0.0000 0.0000 0.0000 0.0000 -0.0000 -0.0380 -0.0852 0.0162 0.0000 0.0000 0.0000 -0.0000 0.0000 -0.0000 -1.3541 0.0724 -0.7533 12.1219 0.3174 4.6894 -1.5591 0.2123 -2.1415 -0.0000 0.0000 -0.0000 -0.0000 0.0000 0.0000 0.0000 0.0000 -0.0000 0.0380 -0.0852 0.0162 -0.0000 0.0000 -0.0000 
0.0047 0.2709 -0.0214 -16.3574 84.7428 20.7502 -0.0000 0.0000 -0.0000 -0.0000 -0.0000 0.0000 -0.0000 0.0000 -0.0000 0.0000 0.0000 -0.0000 0.0009 0.1551 0.0093 9.7191 -0.0115 2.9956 0.0199 0.0790 0.0575 4.5447 3.8053 28.1571 0.1770 -0.0205 -0.0951 -6.9200 11.6738 -67.1883 0.4328 -1.4889 -6.1978 -0.0000 -0.0000 0.0000 0.0218 -0.0383 0.0130 -0.0000 0.0000 0.0000 -0.0000 -0.0000 0.0000 0.0000 0.0000 0.0000 0.0000 0.0000 0.0000 -0.0091 -0.0023 -0.0242 0.0000 0.0000 0.0000 0.0000 -0.0000 0.0000 -0.0000 0.0000 -0.0000 0.0328 -0.0251 0.0123 0.0000 -0.0000 0.0000 -0.0000 -0.0000 -0.0000 -0.0000 -0.0000 0.0000 0.0000 -0.0000 0.0000 0.0392 -0.0114 0.0084 0.0000 0.0000 0.0000 0.0000 0.0000 0.0000 -0.0000 0.0000 -0.0000 0.0000 -0.0000 -0.0000 0.0434 0.0024 0.0029 -0.0000 -0.0000 -0.0000 0.0000 -0.0000 0.0000 0.0000 -0.0000 0.0000 -0.0000 -0.0000 0.0000 -0.0167 0.0790 0.0577 4.2416 -2.3967 -27.4571 -0.1770 -0.0205 -0.0951 -3.5566 -11.4692 67.2713 4.1408 -2.9485 6.5471 -0.0000 0.0000 -0.0000 -0.0218 -0.0383 0.0130 -0.0000 0.0000 0.0000 -0.0000 0.0000 0.0000 -0.0000 0.0000 -0.0000 -0.0000 0.0000 0.0000 0.0091 -0.0024 -0.0242 -0.0000 -0.0000 0.0000 -0.0000 -0.0000 -0.0000 -0.0000 -0.0000 -0.0000 -0.0328 -0.0251 0.0123 -0.0000 0.0000 -0.0000 -0.0000 0.0000 0.0000 0.0000 -0.0000 -0.0000 -0.0000 0.0000 -0.0000 -0.0392 -0.0115 0.0084 0.0000 0.0000 0.0000 0.0000 0.0000 0.0000 0.0000 0.0000 0.0000 -0.0000 -0.0000 -0.0000 -0.0434 0.0024 0.0028 0.0000 0.0000 0.0000 -0.0000 0.0000 0.0000 -0.0000 -0.0000 -0.0000 -0.0000 0.0000 0.0000 -0.0000 0.0000 -0.0000 -1.3958 0.0350 -1.4871 13.2704 -0.0133 -0.6807 -1.0521 -0.3391 3.4255 -0.0000 0.0000 -0.0000 -0.0000 0.0000 0.0000 -0.0000 -0.0000 -0.0000 -0.0380 -0.0852 0.0162 -0.0000 -0.0000 -0.0000 -0.0000 0.0000 -0.0000 -1.3648 0.0345 -0.2529 11.6024 0.3571 5.1701 -1.3815 0.2236 -2.2560 -0.0000 0.0000 0.0000 0.0000 -0.0000 -0.0000 0.0000 -0.0000 0.0000 0.0380 -0.0852 0.0162 -0.0000 0.0000 0.0000 
